<svg xmlns="http://www.w3.org/2000/svg" viewBox="86 56 220 90" fill="none">
        <g id="Group" transform="translate(0, -289)">
            <g transform="translate(116, 409)">
                <text id="an" font-family="Inter, system-ui, sans-serif" font-size="16.4583333" font-weight="400" letter-spacing="-0.317410678" fill="#FFFFFF">
                    <tspan x="10.4639732" y="18">an  </tspan>
                </text>
                <text id="company" font-family="Inter, system-ui, sans-serif" font-size="16.4583333" font-weight="400" letter-spacing="-0.317410678" fill="#FFFFFF">
                    <tspan x="86.4487672" y="18">company  </tspan>
                </text>
                <g id="Group-5" transform="translate(31.8194, 3.2917)" fill="#6DFF8A" fill-rule="nonzero">
                    <g id="Logo">
                        <path d="M50.3498713,5.67420635 C50.0589656,4.60833333 47.796366,2.16309524 46.1479006,0.188095238 C46.1155777,0.156746032 46.0186092,0 45.8246721,0 C45.6630578,0 45.5337664,0.156746032 45.5984121,0.282142857 C45.6630578,0.407539683 47.2468775,3.60515873 46.9559719,4.63968254 C46.6650662,5.70555556 45.2105379,5.48611111 44.9842779,5.48611111 C44.8549865,5.48611111 44.9519551,5.58015873 45.0812465,5.70555556 C45.8893178,6.3952381 46.4064834,7.36706349 46.4064834,8.62103175 L46.4064834,9.56150794 C46.4064834,9.59285714 46.4064834,9.59285714 46.4388062,9.59285714 C48.2812088,9.43611111 51.0932969,8.33888889 50.3498713,5.67420635" id="Path"></path>
                        <path d="M43.2065211,11.85 C43.2065211,12.759127 41.9459299,13.2607143 41.1378586,13.2607143 C40.2651416,13.2607143 39.0368733,12.759127 39.0368733,11.85 L39.0368733,8.65238095 C39.0368733,7.74325397 40.2651416,7.33571429 41.1378586,7.33571429 C41.9459299,7.33571429 43.2065211,7.77460317 43.2065211,8.65238095 L43.2065211,11.85 Z M41.1378586,5.32936508 C39.1984875,5.36071429 36.9358879,6.4265873 36.9358879,8.62103175 L36.9358879,11.9753968 C36.9358879,14.2011905 39.1984875,15.2670635 41.1378586,15.2670635 C43.0449068,15.2357143 45.3075064,14.2011905 45.3075064,11.9753968 L45.3075064,8.65238095 C45.3075064,6.45793651 43.0449068,5.36071429 41.1378586,5.32936508 L41.1378586,5.32936508 Z" id="Shape"></path>
                        <path d="M28.5965922,11.85 C28.5965922,12.759127 27.336001,13.2607143 26.5279298,13.2607143 C25.6552128,13.2607143 24.4269444,12.759127 24.4269444,11.85 L24.4269444,8.65238095 C24.4269444,7.74325397 25.6552128,7.33571429 26.5279298,7.33571429 C27.336001,7.33571429 28.5965922,7.77460317 28.5965922,8.65238095 L28.5965922,11.85 Z M26.4956069,5.32936508 C24.5562358,5.36071429 22.2936362,6.4265873 22.2936362,8.62103175 L22.2936362,11.9753968 C22.2936362,14.2011905 24.5562358,15.2670635 26.4956069,15.2670635 C28.4026551,15.2357143 30.6652547,14.2011905 30.6652547,11.9753968 L30.6652547,8.65238095 C30.6652547,6.45793651 28.4026551,5.36071429 26.4956069,5.32936508 L26.4956069,5.32936508 Z" id="Shape"></path>
                        <path d="M5.42110775,5.70555556 C5.55039916,5.58015873 5.64736771,5.48611111 5.51807631,5.48611111 C5.29181635,5.48611111 3.83728803,5.70555556 3.54638237,4.63968254 C3.25547671,3.57380952 4.83929643,0.407539683 4.90394213,0.282142857 C4.93626498,0.156746032 4.83929643,0 4.64535932,0 C4.48374506,0 4.35445366,0.188095238 4.3221308,0.188095238 C2.70598823,2.16309524 0.411065779,4.60833333 0.120160116,5.67420635 C-0.623265467,8.33888889 2.25346831,9.43611111 4.06354799,9.62420635 C4.09587084,9.62420635 4.09587084,9.59285714 4.09587084,9.59285714 L4.09587084,8.65238095 C4.1281937,7.36706349 4.61303647,6.3952381 5.42110775,5.70555556" id="Path"></path>
                        <path d="M22.1643448,6.08174603 C20.6128479,5.67420635 19.4815481,5.51746032 17.8007599,5.51746032 C16.1522944,5.51746032 14.9886718,5.67420635 13.4371749,6.08174603 C13.3725292,6.11309524 13.3402064,6.17579365 13.3725292,6.20714286 C13.8896948,6.64603175 14.1159548,7.21031746 14.2129233,7.83730159 C15.0533175,7.64920635 15.8290659,7.52380952 16.7341058,7.46111111 L16.7341058,15.2043651 C16.7341058,15.2357143 16.7664286,15.2357143 16.7987515,15.2357143 L18.8027683,15.2357143 C18.8350911,15.2357143 18.867414,15.2357143 18.867414,15.2043651 L18.867414,7.46111111 C19.7401309,7.52380952 20.4512337,7.61785714 21.2916278,7.83730159 C21.4209192,7.21031746 21.679502,6.61468254 22.2289905,6.20714286 C22.2289905,6.14444444 22.1966677,6.08174603 22.1643448,6.08174603" id="Path"></path>
                        <path d="M37.0005336,5.4234127 C36.8389194,5.39206349 36.4187223,5.32936508 36.0308481,5.36071429 C34.1237998,5.4234127 31.9581688,6.52063492 31.9581688,8.65238095 L31.9581688,8.84047619 L31.9581688,12.006746 L31.9581688,15.2670635 C31.9581688,15.2984127 31.9904916,15.2984127 32.0228145,15.2984127 L34.0268313,15.2984127 C34.0591541,15.2984127 34.091477,15.2984127 34.091477,15.2670635 L34.091477,15.0789683 L34.091477,15.0789683 L34.091477,8.65238095 C34.091477,7.93134921 34.9965168,7.52380952 35.7399424,7.36706349 C35.9662024,6.67738095 36.3863994,6.14444444 37.0328565,5.64285714 C37.129825,5.54880952 37.0975022,5.4234127 37.0005336,5.4234127" id="Path"></path>
                        <path d="M11.2068982,9.21666667 C11.2068982,9.24801587 11.2068982,9.24801587 11.1745753,9.27936508 C11.1745753,9.31071429 11.1422525,9.31071429 11.1099296,9.31071429 L7.29583314,9.31071429 L7.29583314,8.65238095 C7.29583314,7.74325397 8.42713294,7.30436508 9.29984993,7.30436508 C10.1402441,7.30436508 11.2068982,7.74325397 11.2068982,8.65238095 L11.2068982,9.21666667 Z M9.29984993,5.26666667 C7.32815599,5.29801587 5.16252494,6.3952381 5.16252494,8.62103175 L5.16252494,12.006746 C5.16252494,14.2638889 7.32815599,15.3297619 9.29984993,15.3611111 C10.7220554,15.3611111 12.3058751,14.7968254 13.0816235,13.5742063 C13.1139464,13.5428571 13.0816235,13.4801587 13.0493007,13.4488095 C12.3705208,13.072619 11.9826466,12.8531746 11.3038667,12.5083333 C11.2715439,12.5083333 11.2715439,12.5083333 11.239221,12.5396825 C10.8836696,13.1353175 9.94630696,13.4488095 9.29984993,13.4488095 C8.42713294,13.4488095 7.29583314,12.915873 7.29583314,12.006746 L7.29583314,11.0035714 L12.758395,11.0035714 C13.0493007,11.0035714 13.2755607,10.784127 13.2755607,10.5019841 L13.2755607,8.65238095 C13.2755607,6.3952381 11.239221,5.29801587 9.29984993,5.26666667 L9.29984993,5.26666667 Z" id="Shape"></path>
                    </g>
                </g>
            </g>
        </g>
        <g id="Group" transform="translate(90, 63)" fill="#FFFFFF">
            <path d="M56.0392441,19.0833524 C53.4453029,22.366056 50.9774081,25.4940197 50.9774081,25.4940197 L42.5350492,25.4940197 C42.5350492,25.4940197 50.3589247,15.723442 51.5358329,14.0820902 C53.6494145,11.1384442 51.4337222,6.36902001 45.8736299,6.36902001 L24.1493041,6.36902001 L29.1870946,3.77653464e-12 L47.7829902,3.77653464e-12 L47.8117568,3.77653464e-12 C50.230902,3.77653464e-12 55.2546387,-0.000325286273 58.7652704,5.89925456 C61.9536495,11.2572992 58.2548267,16.2823759 56.0392441,19.0833524 Z M45.9396176,31.8750004 L29.1150682,31.8750004 L41.724422,15.937555 C42.6011467,14.8254506 41.5142716,12.7500007 40.0551866,12.7500007 L19.1115135,12.7500007 L14.0738328,19.1250006 L30.8203169,19.1250006 L18.2108532,35.0624459 C17.1961144,36.3410344 17.9707284,38.2500007 19.8501142,38.2500007 L40.901827,38.2500007 L45.9396176,31.8750004 Z M9.03000339,25.5059813 C9.03000339,25.5059813 6.56210856,28.633945 3.9681674,31.9166485 C1.75258482,34.717625 -1.94623803,39.7427017 1.24214111,45.1007464 C4.75277284,51.0003262 9.77650946,51 12.1956547,51 L12.2244213,51 L30.8203169,51 L35.8581074,44.6250001 L14.1337816,44.6250001 C8.57368934,44.6250001 6.35799695,39.8615567 8.47157864,36.9179107 C9.6484868,35.2765589 17.4723623,25.5059813 17.4723623,25.5059813 L9.03000339,25.5059813 Z" id="Shape"></path>
            <polygon id="Path" points="74.4181818 41.9906164 74.4181818 37.7980685 86.4514629 23.3472351 74.7334074 23.3472351 74.7334074 17.9951712 95.6294288 17.9951712 95.6294288 22.1876103 83.2134769 36.6384438 96.0345777 36.6384438 96.0345777 41.9906164"></polygon>
            <path d="M111.359966,42.3473989 C108.597488,42.3473989 106.165496,41.8121707 104.063992,40.7417145 C101.992133,39.6713669 100.385811,38.2143329 99.245026,36.3708297 C98.1042408,34.4975312 97.5343972,32.3716251 97.5343972,29.9928938 C97.5343972,27.5843672 98.0899673,25.4583523 99.2000094,23.6148491 C100.340795,21.7416594 101.887827,20.2846253 103.838909,19.2439643 C105.789992,18.1735081 107.996901,17.6382799 110.458537,17.6382799 C112.830141,17.6382799 114.962388,18.1438215 116.853083,19.1547959 C118.774521,20.135975 120.29081,21.5632138 121.40195,23.4365122 C122.51309,25.2800154 123.06866,27.4951987 123.06866,30.0820622 C123.06866,30.3496763 123.053288,30.6618746 123.023643,31.0186571 C122.9929,31.345753 122.963255,31.6579513 122.93361,31.9553607 L104.930374,31.9553607 C104.866855,31.3308916 104.835096,30.7064588 104.835096,30.0820622 C104.835096,29.4576656 104.845473,28.7291667 104.866226,27.8965655 L116.191646,27.8965655 C116.252708,27.1433459 116.113055,26.4594674 115.772686,25.8449301 C115.262132,24.9232329 114.557239,24.2095591 113.65581,23.7041263 C112.755479,23.1688982 111.704727,22.9012841 110.503554,22.9012841 C109.302381,22.9012841 108.237355,23.1688982 107.306281,23.7041263 C106.40595,24.2095591 105.699959,24.9380218 105.189406,25.8895143 C104.67995,26.8113203 104.709595,32.7284076 105.279439,33.739382 C105.880025,34.7205611 106.705695,35.478819 107.756447,36.0140472 C108.837942,36.51948 110.098405,36.7721964 111.540033,36.7721964 C112.830141,36.7721964 113.956652,36.5789619 114.917371,36.1923841 C115.907735,35.805915 116.808066,35.2261026 117.619462,34.452947 L121.356933,38.4670493 C120.245793,39.7159512 118.85028,40.6822326 117.169297,41.3661111 C115.487215,42.0203029 113.551504,42.3473989 111.359966,42.3473989 Z" id="Path"></path>
            <path d="M140.670129,17.6382799 C142.591567,17.6382799 144.303294,18.0248578 145.804211,18.7979046 C147.334774,19.541265 148.535947,20.7008897 149.406633,22.2768875 C150.277318,23.8229813 150.712112,25.8152435 150.712112,28.2534567 L150.712112,41.9906164 L143.687335,41.9906164 L143.687335,29.3238042 C143.687335,27.3911326 143.251444,25.9638939 142.381856,25.0420879 C141.540815,24.1203907 140.339642,23.6594333 138.778336,23.6594333 C137.668294,23.6594333 136.662558,23.8973608 135.76113,24.3731071 C134.890444,24.8191668 134.199824,25.5178342 133.690369,26.4693267 C133.20946,27.4208192 132.969006,28.6399258 132.969006,30.1266464 L132.969006,41.9906164 L125.944229,41.9906164 L125.944229,17.9951712 L132.65389,17.9951712 L132.65389,20.7540225 C133.2241,20.1140676 134.049769,19.5066488 135.130898,18.931766 C136.752592,18.069442 138.59827,17.6382799 140.670129,17.6382799 Z" id="Path"></path>
            <path d="M166.848897,51 C164.567327,51 162.360418,50.717597 160.229269,50.1525736 C158.126667,49.6173454 156.371021,48.7997143 154.960137,47.6995715 L157.752261,42.7041814 C158.77227,43.5367102 160.063476,44.190902 161.624782,44.6666483 C163.215732,45.1720811 164.777038,45.4249063 166.308698,45.4249063 C168.79998,45.4249063 170.601739,44.8747805 171.71288,43.7746377 C172.853665,42.6744948 173.423508,41.0391239 173.423508,38.8685247 L173.423508,35.2557892 L173.873674,29.2346358 L173.783641,23.1688982 L173.783641,17.9951712 L180.449383,17.9951712 L180.449383,37.9765141 C180.449383,42.4365673 179.277855,45.7222069 176.935897,47.8333242 C174.595036,49.9444414 171.231971,51 166.848897,51 Z M165.767402,40.8309917 C163.516574,40.8309917 161.474361,40.3552454 159.642956,39.4037529 C157.842294,38.4224651 156.386393,37.0696058 155.275253,35.3449576 C154.193758,33.5907317 153.653559,31.5538852 153.653559,29.2346358 C153.653559,26.8855911 154.193758,24.8488534 155.275253,23.1243139 C156.386393,21.3699792 157.842294,20.0170112 159.642956,19.0655187 C161.474361,18.1140262 163.516574,17.6382799 165.767402,17.6382799 C167.809616,17.6382799 169.610278,18.0545443 171.171583,18.8871818 C172.732889,19.690024 173.949433,20.9537148 174.820119,22.6782543 C175.690805,24.3731071 176.125599,26.5586039 176.125599,29.2346358 C176.125599,31.8809812 175.690805,34.0664779 174.820119,35.7910173 C173.949433,37.4858702 172.732889,38.749561 171.171583,39.5820898 C169.610278,40.4146185 167.809616,40.8309917 165.767402,40.8309917 Z M167.164013,35.1220365 C168.394831,35.1220365 169.490599,34.884109 170.451318,34.4083628 C171.412037,33.90293 172.163045,33.2041538 172.703244,32.3121432 C173.243442,31.4201326 173.513541,30.3942605 173.513541,29.2346358 C173.513541,28.0452158 173.243442,27.0194525 172.703244,26.1571284 C172.163045,25.2651177 171.412037,24.5812393 170.451318,24.105493 C169.490599,23.6000602 168.394831,23.3472351 167.164013,23.3472351 C165.933194,23.3472351 164.837426,23.6000602 163.876707,24.105493 C162.915988,24.5812393 162.150707,25.2651177 161.579765,26.1571284 C161.039567,27.0194525 160.769467,28.0452158 160.769467,29.2346358 C160.769467,30.3942605 161.039567,31.4201326 161.579765,32.3121432 C162.150707,33.2041538 162.915988,33.90293 163.876707,34.4083628 C164.837426,34.884109 165.933194,35.1220365 167.164013,35.1220365 Z" id="Shape" fill-rule="nonzero"></path>
            <path d="M196.714629,42.3473989 C194.133315,42.3473989 191.836373,41.8121707 189.824902,40.7417145 C187.843076,39.6713669 186.267497,38.2143329 185.095969,36.3708297 C183.955184,34.4975312 183.38534,32.3716251 183.38534,29.9928938 C183.38534,27.5843672 183.955184,25.4583523 185.095969,23.6148491 C186.267497,21.7416594 187.843076,20.2846253 189.824902,19.2439643 C191.836373,18.1735081 194.133315,17.6382799 196.714629,17.6382799 C199.266299,17.6382799 201.548967,18.1735081 203.560438,19.2439643 C205.571909,20.2846253 207.147488,21.7267617 208.288273,23.5702649 C209.429058,25.4137681 210,27.5546806 210,29.9928938 C210,32.3716251 209.429058,34.4975312 208.288273,36.3708297 C207.147488,38.2143329 205.571909,39.6713669 203.560438,40.7417145 C201.548967,41.8121707 199.266299,42.3473989 196.714629,42.3473989 Z M196.714629,36.6384438 C197.886158,36.6384438 198.93691,36.3708297 199.866886,35.8356016 C200.797959,35.3003734 201.533596,34.5422242 202.073794,33.5609364 C202.613993,32.549962 202.884092,31.3606507 202.884092,29.9928938 C202.884092,28.5953416 202.613993,27.4060303 202.073794,26.4247425 C201.533596,25.4435634 200.797959,24.6853054 199.866886,24.1500773 C198.93691,23.6148491 197.886158,23.3472351 196.714629,23.3472351 C195.544199,23.3472351 194.493447,23.6148491 193.562373,24.1500773 C192.631299,24.6853054 191.88139,25.4435634 191.310448,26.4247425 C190.77025,27.4060303 190.50015,28.5953416 190.50015,29.9928938 C190.50015,31.3606507 190.77025,32.549962 191.310448,33.5609364 C191.88139,34.5422242 192.631299,35.3003734 193.562373,35.8356016 C194.493447,36.3708297 195.544199,36.6384438 196.714629,36.6384438 Z" id="Shape" fill-rule="nonzero"></path>
        </g>
    </svg>